<svg xmlns="http://www.w3.org/2000/svg" width="241" height="54" viewBox="0 0 241 54">
  <defs>
    <style>
      .cls-1 {
        fill: #fff;
        fill-rule: evenodd;
      }
    </style>
  </defs>
  <path id="Logo" class="cls-1" d="M22.919,48.4l28.619-.252L30.983,12.958,14.191,42.888l-4.521.04L28.976,9.361,25.747,3.835,0,48.6l17.439-.153L31.08,24.136,41.89,42.644l-16.649.147Zm44.757,5.589L36.367,0.225l0.37-.219,31.31,53.763Zm2.807-33.178V20.759a9.528,9.528,0,0,1,19.055-.052v0.052A9.528,9.528,0,0,1,70.484,20.811Zm14.051,0V20.759a4.672,4.672,0,0,0-4.549-4.912,4.582,4.582,0,0,0-4.473,4.86v0.052a4.667,4.667,0,0,0,4.524,4.912A4.586,4.586,0,0,0,84.535,20.811Zm10.088-9.147H99.2l7.278,9.615V11.664h4.852V29.854h-4.3l-7.556-9.979v9.979H94.624V11.664Zm26.691,4.417h-5.307V11.664h15.517v4.417h-5.307V29.854h-4.9V16.081Zm14.99-4.417h4.929V29.854h-4.929V11.664Zm10.086,9.147V20.759a9.216,9.216,0,0,1,9.325-9.459,8.589,8.589,0,0,1,7.506,3.794l-3.69,2.937a4.7,4.7,0,0,0-3.866-2.131c-2.476,0-4.22,2.157-4.22,4.807v0.052c0,2.729,1.744,4.86,4.22,4.86a4.8,4.8,0,0,0,3.993-2.209l3.69,2.7a8.857,8.857,0,0,1-7.835,4.106A9.112,9.112,0,0,1,146.391,20.811Zm21.586-9.147h14.229v4.288H172.83v2.754h8.491v3.976H172.83v2.885h9.5v4.288H167.977V11.664Zm19.388,0h4.9V25.437h8.567v4.418h-13.47V11.664Zm18.1,0h4.9V25.437h8.568v4.418h-13.47V11.664Zm16.481,9.147V20.759A9.528,9.528,0,0,1,241,20.707v0.052A9.528,9.528,0,0,1,221.945,20.811Zm14.051,0V20.759a4.672,4.672,0,0,0-4.549-4.912,4.582,4.582,0,0,0-4.473,4.86v0.052a4.667,4.667,0,0,0,4.524,4.912A4.586,4.586,0,0,0,236,20.811ZM51.424,25.482V19.459l4.5,7.069h0.1l4.524-7.121V29.854h4.878V11.664H60.243l-4.22,7.042L51.8,11.664H46.622v5.574Zm20.07,14.225h0.678v6.061H71.494V39.707Zm5.876,0h0.636l3.786,4.857V39.707h0.661v6.061H81.911L78.03,40.8v4.97H77.369V39.707ZM89.18,40.338H87.162V39.707h4.722v0.631H89.866v5.429H89.18V40.338Zm7.414-.631h4.345V40.33H97.273V42.4h3.279v0.623H97.273v2.121h3.708v0.624H96.594V39.707Zm9.191,0h2.584a2.358,2.358,0,0,1,1.709.606,1.685,1.685,0,0,1,.463,1.194v0.017a1.767,1.767,0,0,1-1.63,1.766l1.845,2.477h-0.833l-1.742-2.355h-1.717v2.355h-0.679V39.707Zm2.524,3.091a1.335,1.335,0,0,0,1.545-1.246V41.533a1.279,1.279,0,0,0-1.536-1.2h-1.854V42.8h1.845Zm7.123-3.091h0.636l3.786,4.857V39.707h0.661v6.061h-0.541l-3.881-4.97v4.97h-0.661V39.707Zm12.446-.044h0.635l2.739,6.1h-0.73l-0.7-1.6h-3.271l-0.713,1.6h-0.7Zm1.674,3.888-1.365-3.092-1.374,3.092h2.739Zm7.14-3.213h-2.018V39.707H139.4v0.631h-2.018v5.429h-0.686V40.338Zm7.475-.631h0.677v6.061h-0.677V39.707Zm5.609,3.047V42.737a3.066,3.066,0,1,1,6.13-.018v0.018A3.066,3.066,0,1,1,149.776,42.754Zm5.426,0V42.737a2.4,2.4,0,0,0-2.37-2.5,2.372,2.372,0,0,0-2.352,2.485v0.018a2.4,2.4,0,0,0,2.37,2.5A2.372,2.372,0,0,0,155.2,42.754Zm5.577-3.047h0.636l3.786,4.857V39.707h0.661v6.061h-0.541L161.44,40.8v4.97h-0.661V39.707Zm12.446-.044h0.636l2.738,6.1H175.87l-0.7-1.6H171.9l-0.713,1.6h-0.695Zm1.675,3.888-1.366-3.092-1.373,3.092H174.9Zm6.324-3.844H181.9v5.428h3.382v0.633h-4.061V39.707Zm14.5,3.047V42.737a3.03,3.03,0,0,1,3.013-3.135,3.146,3.146,0,0,1,2.24.806l-0.437.519a2.549,2.549,0,0,0-1.828-.692,2.359,2.359,0,0,0-2.285,2.485v0.018a2.334,2.334,0,0,0,2.379,2.519,2.817,2.817,0,0,0,1.734-.606V43.143h-1.828V42.529h2.48v2.415a3.621,3.621,0,0,1-2.413.926A2.959,2.959,0,0,1,195.725,42.754Zm10.436-3.047h2.585a2.358,2.358,0,0,1,1.708.606,1.682,1.682,0,0,1,.464,1.194v0.017a1.768,1.768,0,0,1-1.631,1.766l1.845,2.477H210.3l-1.742-2.355H206.84v2.355h-0.679V39.707Zm2.524,3.091a1.335,1.335,0,0,0,1.545-1.246V41.533a1.279,1.279,0,0,0-1.536-1.2H206.84V42.8h1.845Zm6.857-.044V42.737a3.065,3.065,0,1,1,6.129-.018v0.018A3.065,3.065,0,1,1,215.542,42.754Zm5.425,0V42.737a2.4,2.4,0,0,0-2.369-2.5,2.372,2.372,0,0,0-2.353,2.485v0.018a2.4,2.4,0,0,0,2.37,2.5A2.372,2.372,0,0,0,220.967,42.754Zm5.484,0.476V39.707h0.678v3.48a1.777,1.777,0,0,0,1.837,2.043,1.736,1.736,0,0,0,1.812-2V39.707h0.678v3.472A2.507,2.507,0,1,1,226.451,43.231Zm10.05-3.523h2.25A1.961,1.961,0,0,1,241,41.629v0.017a2.078,2.078,0,0,1-2.361,1.983H237.18v2.139H236.5V39.707Zm2.164,3.3a1.429,1.429,0,0,0,1.648-1.334V41.655a1.362,1.362,0,0,0-1.614-1.316H237.18V43h1.485Z"/>
</svg>
